<?xml version="1.0" standalone="no"?>
<!DOCTYPE svg PUBLIC "-//W3C//DTD SVG 20010904//EN"
 "http://www.w3.org/TR/2001/REC-SVG-20010904/DTD/svg10.dtd">
<svg version="1.0" xmlns="http://www.w3.org/2000/svg"
 width="480.000000pt" height="80.000000pt" viewBox="0 0 480.000000 80.000000"
 preserveAspectRatio="xMidYMid meet">
<metadata>
Created by potrace 1.16, written by Peter Selinger 2001-2019
</metadata>
<g transform="translate(0.000000,80.000000) scale(0.100000,-0.100000)"
fill="#000000" stroke="none">
<path d="M1773 614 c-10 -4 -13 -57 -13 -215 l0 -209 23 0 c34 -1 329 -1 815
-1 l442 1 0 210 0 210 -412 1 c-227 0 -510 2 -628 4 -118 2 -221 2 -227 -1z
m357 -214 l0 -200 -175 0 -175 0 0 200 0 200 175 0 175 0 0 -200z"/>
<path d="M1869 501 c-33 -33 -36 -58 -14 -101 16 -31 33 -38 100 -42 60 -4 54
-31 -7 -38 -47 -6 -98 -34 -106 -59 -3 -10 16 -12 88 -10 86 4 93 6 116 32 58
68 4 147 -101 147 -24 0 -35 4 -35 15 0 11 11 15 35 15 41 0 110 32 118 55 6
13 -6 15 -79 15 -81 0 -87 -1 -115 -29z"/>
</g>
</svg>
